Love Hate Season 1 HQ.DVDrip x264 AC3 DeViL303

Love/Hate is an Irish crime drama series which broadcasts on RTÉ Television. The first episode was broadcast at 21:30 on 3 October 2010 on RTÉ One.[1] The show depicts fictional characters in Dublin's criminal underworld, John Boy Power played by Aidan Gillen and Darren Treacy played by Robert Sheehan. The show also features actors Ruth Negga, Ruth Bradley, Killian Scott, and Chris Newman.

It is directed by David Caffrey and is produced by Simon Massey, Suzanne McAuley, and James Flynn.[2]

Internationally, the show is available to view on the RTÉ Player for a limited time after its initial broadcast. The series is broadcast in Scotland on STV.[3] RTÉ International and the show's producers signed an international broadcasting deal with ITV Studios Global Entertainment. ITV Global will help market and distribute the show internationally.[4] It has been well received,[5] and has won eight Irish Film & Television Awards, seven of them in 2012.[6]

The third season aired on 11 November 2012. The opening episode of the third series had an average audience of 630,700 viewers which represented a 35% share of the available audience. The reach was 970,600.


Complete name                            : Love Hate S01E01 HQ.DVDrip x264 AC3 DeViL303.mkv
Format                                   : Matroska
Format version                           : Version 1
File size                                : 548 MiB
Duration                                 : 51mn 13s
Overall bit rate mode                    : Variable
Overall bit rate                         : 1 496 Kbps
Encoded date                             : UTC 2013-02-23 19:34:48
Writing application                      : mkvmerge v2.5.3 ('Boogie') built on Mar  7 2009 15:00:41
Writing library                          : libebml v0.7.7 + libmatroska v0.8.1

Video
ID                                       : 1
Format                                   : AVC
Format/Info                              : Advanced Video Codec
Format profile                           : High@L3.0
Format settings, CABAC                   : Yes
Format settings, ReFrames                : 3 frames
Codec ID                                 : V_MPEG4/ISO/AVC
Duration                                 : 51mn 13s
Bit rate mode                            : Variable
Bit rate                                 : 1 303 Kbps
Maximum bit rate                         : 12.0 Mbps
Width                                    : 720 pixels
Height                                   : 480 pixels
Display aspect ratio                     : 16:9
Original display aspect ratio            : 3:2
Frame rate mode                          : Constant
Frame rate                               : 29.970 fps
Standard                                 : NTSC
Color space                              : YUV
Chroma subsampling                       : 4:2:0
Bit depth                                : 8 bits
Scan type                                : Progressive
Bits/(Pixel*Frame)                       : 0.126
Stream size                              : 467 MiB (85%)
Writing library                          : x264 core 93 r1542M 5b86182
Encoding settings                        : cabac=1 / ref=4 / deblock=1:-1:-1 / r
Default                                  : Yes
Forced                                   : No

Audio
ID                                       : 2
Format                                   : AC-3
Format/Info                              : Audio Coding 3
Mode extension                           : CM (complete main)
Format settings, Endianness              : Big
Codec ID                                 : A_AC3
Duration                                 : 51mn 13s
Bit rate mode                            : Constant
Bit rate                                 : 192 Kbps
Channel(s)                               : 2 channels
Channel positions                        : Front: L R
Sampling rate                            : 48.0 KHz
Bit depth                                : 16 bits
Compression mode                         : Lossy
Stream size                              : 70.3 MiB (13%)
Default                                  : Yes
Forced                                   : No